<svg width="136" height="28" viewBox="0 0 136 28" fill="none" xmlns="http://www.w3.org/2000/svg">
<path d="M7.12 27H0.28V0.399998H21.37V5.72H7.12V11.99H18.33V17.31H7.12V27ZM29.9185 11.23C28.9052 11.23 28.3985 11.7367 28.3985 12.75V14.84H34.8585V12.75C34.8585 11.7367 34.3518 11.23 33.3385 11.23H29.9185ZM40.7485 26.62C35.8592 27.1267 31.4258 27.38 27.4485 27.38C25.7258 27.38 24.3452 26.8607 23.3065 25.822C22.2678 24.7833 21.7485 23.4027 21.7485 21.68V12.56C21.7485 10.66 22.2805 9.178 23.3445 8.114C24.4338 7.02467 25.9285 6.48 27.8285 6.48H35.4285C37.3285 6.48 38.8105 7.02467 39.8745 8.114C40.9638 9.178 41.5085 10.66 41.5085 12.56V19.59H28.3985V21.11C28.3985 21.49 28.5252 21.8067 28.7785 22.06C29.0318 22.3133 29.3485 22.44 29.7285 22.44C32.2365 22.44 35.9098 22.25 40.7485 21.87V26.62ZM44.1537 21.68C49.2963 22.06 53.3497 22.25 56.3137 22.25C56.6937 22.25 57.0103 22.1233 57.2637 21.87C57.517 21.6167 57.6437 21.3 57.6437 20.92V19.59H49.4737C47.751 19.59 46.3703 19.0707 45.3317 18.032C44.293 16.9933 43.7737 15.6127 43.7737 13.89V12.56C43.7737 10.8373 44.293 9.45667 45.3317 8.418C46.3703 7.37933 47.751 6.86 49.4737 6.86H62.3937V11.8H51.7537C51.3737 11.8 51.057 11.9267 50.8037 12.18C50.5503 12.4333 50.4237 12.75 50.4237 13.13C50.4237 13.51 50.5503 13.8267 50.8037 14.08C51.057 14.3333 51.3737 14.46 51.7537 14.46H58.5937C60.3163 14.46 61.697 14.9793 62.7357 16.018C63.7743 17.0567 64.2937 18.4373 64.2937 20.16V21.68C64.2937 23.4027 63.7743 24.7833 62.7357 25.822C61.697 26.8607 60.3163 27.38 58.5937 27.38C54.1097 27.38 49.2963 27.1267 44.1537 26.62V21.68ZM81.0166 27C78.5593 27.2533 76.1526 27.38 73.7966 27.38C72.074 27.38 70.6933 26.8607 69.6546 25.822C68.616 24.7833 68.0966 23.4027 68.0966 21.68V11.99H65.8166V6.86H68.0966L68.8566 2.3H74.7466V6.86H79.4966V11.99H74.7466V20.73C74.7466 21.11 74.8733 21.4267 75.1266 21.68C75.38 21.9333 75.6966 22.06 76.0766 22.06H81.0166V27ZM91.3108 7.62V27H84.6608V12.75H81.8108V7.62H91.3108ZM84.6608 0.0199986H91.3108V5.34H84.6608V0.0199986ZM108.613 6.86H115.643L108.043 27H100.443L92.8427 6.86H99.8727L104.243 20.54L108.613 6.86ZM124.403 22.06C125.746 22.06 127.266 21.8067 128.963 21.3V19.02H123.453C123.073 19.02 122.757 19.1467 122.503 19.4C122.25 19.6533 122.123 19.97 122.123 20.35V20.73C122.123 21.11 122.25 21.4267 122.503 21.68C122.757 21.9333 123.073 22.06 123.453 22.06H124.403ZM117.373 7.24C122.009 6.73333 126.189 6.48 129.913 6.48C131.636 6.48 133.017 6.99933 134.055 8.038C135.094 9.07667 135.613 10.4573 135.613 12.18V27H129.723L129.343 25.1C128.153 25.8853 126.924 26.468 125.657 26.848C124.416 27.2027 123.365 27.38 122.503 27.38H121.173C119.451 27.38 118.07 26.8607 117.031 25.822C115.993 24.7833 115.473 23.4027 115.473 21.68V19.97C115.473 18.2473 115.993 16.8667 117.031 15.828C118.07 14.7893 119.451 14.27 121.173 14.27H128.963V12.75C128.963 12.37 128.837 12.0533 128.583 11.8C128.33 11.5467 128.013 11.42 127.633 11.42C125.987 11.42 124.163 11.496 122.161 11.648C120.185 11.8 118.589 11.914 117.373 11.99V7.24Z" fill="#E06B30"/>
</svg>
